<svg xmlns="http://www.w3.org/2000/svg" xmlns:xlink="http://www.w3.org/1999/xlink" width="1000" zoomAndPan="magnify" viewBox="0 0 750 149.999998" height="200" preserveAspectRatio="xMidYMid meet" version="1.0"><defs><g/></defs><g fill="#ffffff" fill-opacity="1"><g transform="translate(361.74754, 114.553801)"><g><path d="M 17.25 -17.953125 C 17.25 -15.785156 17.992188 -13.953125 19.484375 -12.453125 C 20.984375 -10.953125 22.820312 -10.203125 25 -10.203125 L 110.90625 -10.203125 L 110.90625 0 L 25 0 C 21.53125 0 18.445312 -0.773438 15.75 -2.328125 C 13.050781 -3.890625 10.925781 -6.019531 9.375 -8.71875 C 7.820312 -11.414062 7.046875 -14.492188 7.046875 -17.953125 L 7.046875 -43.65625 C 7.046875 -47.113281 7.820312 -50.191406 9.375 -52.890625 C 10.925781 -55.597656 13.050781 -57.726562 15.75 -59.28125 C 18.445312 -60.832031 21.53125 -61.609375 25 -61.609375 L 110.90625 -61.609375 L 110.90625 -51.40625 L 25 -51.40625 C 22.820312 -51.40625 20.984375 -50.671875 19.484375 -49.203125 C 17.992188 -47.734375 17.25 -45.882812 17.25 -43.65625 Z M 17.25 -17.953125 "/></g></g></g><g fill="#ffffff" fill-opacity="1"><g transform="translate(479.6794, 114.553801)"><g><path d="M 57.390625 0 L 57.390625 -51.40625 L 7.046875 -51.40625 L 7.046875 -61.609375 L 117.9375 -61.609375 L 117.9375 -51.40625 L 67.59375 -51.40625 L 67.59375 0 Z M 57.390625 0 "/></g></g></g><g fill="#ffffff" fill-opacity="1"><g transform="translate(604.651967, 114.553801)"><g><path d="M 7.046875 0 L 7.046875 -61.609375 L 92.9375 -61.609375 C 96.40625 -61.609375 99.488281 -60.832031 102.1875 -59.28125 C 104.882812 -57.726562 107.007812 -55.597656 108.5625 -52.890625 C 110.125 -50.191406 110.90625 -47.113281 110.90625 -43.65625 C 110.90625 -40.070312 110.066406 -36.882812 108.390625 -34.09375 C 106.710938 -31.3125 104.46875 -29.1875 101.65625 -27.71875 C 104.59375 -25.019531 106.867188 -21.734375 108.484375 -17.859375 C 110.097656 -13.992188 110.90625 -9.742188 110.90625 -5.109375 L 110.90625 0 L 100.6875 0 L 100.6875 -5.109375 C 100.6875 -9.097656 99.789062 -12.628906 98 -15.703125 C 96.21875 -18.785156 93.785156 -21.222656 90.703125 -23.015625 C 87.617188 -24.804688 84.082031 -25.703125 80.09375 -25.703125 L 17.25 -25.703125 L 17.25 0 Z M 17.25 -35.90625 L 92.9375 -35.90625 C 95.164062 -35.90625 97.015625 -36.65625 98.484375 -38.15625 C 99.953125 -39.65625 100.6875 -41.488281 100.6875 -43.65625 C 100.6875 -45.882812 99.953125 -47.734375 98.484375 -49.203125 C 97.015625 -50.671875 95.164062 -51.40625 92.9375 -51.40625 L 17.25 -51.40625 Z M 17.25 -35.90625 "/></g></g></g><path stroke-linecap="butt" transform="matrix(0.694444, 0, 0, 0.694444, 251.826467, 105.447418)" fill="none" stroke-linejoin="miter" d="M 0.00238787 7.500718 L 119.584275 7.500718 " stroke="#ffffff" stroke-width="15" stroke-opacity="1" stroke-miterlimit="4"/><path stroke-linecap="butt" transform="matrix(0.694444, 0, 0, 0.694444, 251.826467, 54.413096)" fill="none" stroke-linejoin="miter" d="M 0.00238787 7.499517 L 119.584275 7.499517 " stroke="#ffffff" stroke-width="15" stroke-opacity="1" stroke-miterlimit="4"/><path stroke-linecap="butt" transform="matrix(0.694444, 0, 0, 0.694444, 275.832941, 79.297687)" fill="none" stroke-linejoin="miter" d="M -0.00130941 7.502582 L 119.586202 7.502582 " stroke="#ffffff" stroke-width="15" stroke-opacity="1" stroke-miterlimit="4"/><path stroke-linecap="butt" transform="matrix(0.694444, 0, 0, 0.694444, 240.272219, 79.297687)" fill="none" stroke-linejoin="miter" d="M 0.00175402 7.502582 L 33.273632 7.502582 " stroke="#ffffff" stroke-width="15" stroke-opacity="1" stroke-miterlimit="4"/><g fill="#ffffff" fill-opacity="1"><g transform="translate(2.191767, 114.553801)"><g><path d="M 92.9375 -35.90625 C 96.40625 -35.90625 99.488281 -35.128906 102.1875 -33.578125 C 104.882812 -32.023438 107.007812 -29.894531 108.5625 -27.1875 C 110.125 -24.488281 110.90625 -21.410156 110.90625 -17.953125 C 110.90625 -14.492188 110.125 -11.414062 108.5625 -8.71875 C 107.007812 -6.019531 104.882812 -3.890625 102.1875 -2.328125 C 99.488281 -0.773438 96.40625 0 92.9375 0 L 9.6875 0 L 9.6875 -10.203125 L 92.9375 -10.203125 C 95.164062 -10.203125 97.015625 -10.953125 98.484375 -12.453125 C 99.953125 -13.953125 100.6875 -15.785156 100.6875 -17.953125 C 100.6875 -20.179688 99.953125 -22.03125 98.484375 -23.5 C 97.015625 -24.96875 95.164062 -25.703125 92.9375 -25.703125 L 25 -25.703125 C 21.53125 -25.703125 18.445312 -26.476562 15.75 -28.03125 C 13.050781 -29.582031 10.925781 -31.707031 9.375 -34.40625 C 7.820312 -37.113281 7.046875 -40.195312 7.046875 -43.65625 C 7.046875 -47.113281 7.820312 -50.191406 9.375 -52.890625 C 10.925781 -55.597656 13.050781 -57.726562 15.75 -59.28125 C 18.445312 -60.832031 21.53125 -61.609375 25 -61.609375 L 108.265625 -61.609375 L 108.265625 -51.40625 L 25 -51.40625 C 22.820312 -51.40625 20.984375 -50.671875 19.484375 -49.203125 C 17.992188 -47.734375 17.25 -45.882812 17.25 -43.65625 C 17.25 -41.488281 17.992188 -39.65625 19.484375 -38.15625 C 20.984375 -36.65625 22.820312 -35.90625 25 -35.90625 Z M 92.9375 -35.90625 "/></g></g></g><g fill="#ffffff" fill-opacity="1"><g transform="translate(120.123627, 114.553801)"><g><path d="M 7.046875 0 L 7.046875 -61.609375 L 92.9375 -61.609375 C 96.40625 -61.609375 99.488281 -60.832031 102.1875 -59.28125 C 104.882812 -57.726562 107.007812 -55.597656 108.5625 -52.890625 C 110.125 -50.191406 110.90625 -47.113281 110.90625 -43.65625 C 110.90625 -40.195312 110.125 -37.113281 108.5625 -34.40625 C 107.007812 -31.707031 104.882812 -29.582031 102.1875 -28.03125 C 99.488281 -26.476562 96.40625 -25.703125 92.9375 -25.703125 L 17.25 -25.703125 L 17.25 0 Z M 17.25 -35.90625 L 92.9375 -35.90625 C 95.164062 -35.90625 97.015625 -36.65625 98.484375 -38.15625 C 99.953125 -39.65625 100.6875 -41.488281 100.6875 -43.65625 C 100.6875 -45.882812 99.953125 -47.734375 98.484375 -49.203125 C 97.015625 -50.671875 95.164062 -51.40625 92.9375 -51.40625 L 17.25 -51.40625 Z M 17.25 -35.90625 "/></g></g></g></svg>