<svg xmlns="http://www.w3.org/2000/svg" xmlns:xlink="http://www.w3.org/1999/xlink" width="1920" zoomAndPan="magnify" viewBox="0 200 1440 210" height="300" preserveAspectRatio="xMidYMid meet" version="1.0"><defs><g/></defs><g fill="#ffffff" fill-opacity="1"><g transform="translate(91.773372, 416.303222)"><g><path d="M 42.71875 -24.515625 C 42.71875 -25.773438 42.300781 -26.816406 41.46875 -27.640625 C 40.644531 -28.460938 39.609375 -28.875 38.359375 -28.875 L 14.046875 -28.875 C 12.828125 -28.875 11.796875 -28.460938 10.953125 -27.640625 C 10.109375 -26.816406 9.6875 -25.773438 9.6875 -24.515625 L 9.6875 0 L 3.953125 0 L 3.953125 -24.515625 C 3.953125 -26.460938 4.390625 -28.191406 5.265625 -29.703125 C 6.140625 -31.222656 7.332031 -32.421875 8.84375 -33.296875 C 10.363281 -34.171875 12.097656 -34.609375 14.046875 -34.609375 L 38.359375 -34.609375 C 41.328125 -34.609375 43.734375 -33.648438 45.578125 -31.734375 C 47.421875 -33.648438 49.828125 -34.609375 52.796875 -34.609375 L 77.125 -34.609375 C 79.070312 -34.609375 80.800781 -34.171875 82.3125 -33.296875 C 83.832031 -32.421875 85.023438 -31.222656 85.890625 -29.703125 C 86.765625 -28.191406 87.203125 -26.460938 87.203125 -24.515625 L 87.203125 0 L 81.46875 0 L 81.46875 -24.515625 C 81.46875 -25.773438 81.054688 -26.816406 80.234375 -27.640625 C 79.410156 -28.460938 78.375 -28.875 77.125 -28.875 L 52.796875 -28.875 C 51.578125 -28.875 50.546875 -28.460938 49.703125 -27.640625 C 48.867188 -26.816406 48.453125 -25.773438 48.453125 -24.515625 L 48.453125 0 L 42.71875 0 Z M 42.71875 -24.515625 "/></g></g></g><g fill="#ffffff" fill-opacity="1"><g transform="translate(182.896996, 416.303222)"><g><path d="M 56.5625 -24.515625 C 56.5625 -25.773438 56.144531 -26.816406 55.3125 -27.640625 C 54.488281 -28.460938 53.453125 -28.875 52.203125 -28.875 L 14.046875 -28.875 C 12.828125 -28.875 11.796875 -28.460938 10.953125 -27.640625 C 10.109375 -26.816406 9.6875 -25.773438 9.6875 -24.515625 L 9.6875 -20.171875 L 56.5625 -20.171875 Z M 3.953125 0 L 3.953125 -24.515625 C 3.953125 -26.460938 4.390625 -28.191406 5.265625 -29.703125 C 6.140625 -31.222656 7.332031 -32.421875 8.84375 -33.296875 C 10.363281 -34.171875 12.097656 -34.609375 14.046875 -34.609375 L 52.203125 -34.609375 C 54.148438 -34.609375 55.878906 -34.171875 57.390625 -33.296875 C 58.910156 -32.421875 60.109375 -31.222656 60.984375 -29.703125 C 61.859375 -28.191406 62.296875 -26.460938 62.296875 -24.515625 L 62.296875 0 L 56.5625 0 L 56.5625 -14.4375 L 9.6875 -14.4375 L 9.6875 0 Z M 3.953125 0 "/></g></g></g><g fill="#ffffff" fill-opacity="1"><g transform="translate(249.114828, 416.303222)"><g><path d="M 3.953125 0 L 3.953125 -34.609375 L 52.203125 -34.609375 C 54.148438 -34.609375 55.878906 -34.171875 57.390625 -33.296875 C 58.910156 -32.421875 60.109375 -31.222656 60.984375 -29.703125 C 61.859375 -28.191406 62.296875 -26.460938 62.296875 -24.515625 C 62.296875 -22.578125 61.859375 -20.847656 60.984375 -19.328125 C 60.109375 -17.816406 58.910156 -16.625 57.390625 -15.75 C 55.878906 -14.875 54.148438 -14.4375 52.203125 -14.4375 L 9.6875 -14.4375 L 9.6875 0 Z M 9.6875 -20.171875 L 52.203125 -20.171875 C 53.453125 -20.171875 54.488281 -20.585938 55.3125 -21.421875 C 56.144531 -22.265625 56.5625 -23.296875 56.5625 -24.515625 C 56.5625 -25.773438 56.144531 -26.816406 55.3125 -27.640625 C 54.488281 -28.460938 53.453125 -28.875 52.203125 -28.875 L 9.6875 -28.875 Z M 9.6875 -20.171875 "/></g></g></g><g fill="#ffffff" fill-opacity="1"><g transform="translate(315.33266, 416.303222)"><g><path d="M 3.953125 0 L 3.953125 -34.609375 L 9.6875 -34.609375 L 9.6875 -20.171875 L 44.984375 -20.171875 C 47.222656 -20.171875 49.207031 -20.671875 50.9375 -21.671875 C 52.675781 -22.679688 54.046875 -24.054688 55.046875 -25.796875 C 56.054688 -27.546875 56.5625 -29.523438 56.5625 -31.734375 L 56.5625 -34.609375 L 62.296875 -34.609375 L 62.296875 -31.734375 C 62.296875 -28.640625 61.632812 -25.835938 60.3125 -23.328125 C 59 -20.828125 57.203125 -18.816406 54.921875 -17.296875 C 57.203125 -15.785156 59 -13.785156 60.3125 -11.296875 C 61.632812 -8.804688 62.296875 -6 62.296875 -2.875 L 62.296875 0 L 56.5625 0 L 56.5625 -2.875 C 56.5625 -5.113281 56.054688 -7.097656 55.046875 -8.828125 C 54.046875 -10.554688 52.675781 -11.921875 50.9375 -12.921875 C 49.207031 -13.929688 47.222656 -14.4375 44.984375 -14.4375 L 9.6875 -14.4375 L 9.6875 0 Z M 3.953125 0 "/></g></g></g><g fill="#ffffff" fill-opacity="1"><g transform="translate(381.550491, 416.303222)"><g><path d="M 3.953125 -24.515625 C 3.953125 -26.460938 4.390625 -28.191406 5.265625 -29.703125 C 6.140625 -31.222656 7.332031 -32.421875 8.84375 -33.296875 C 10.363281 -34.171875 12.097656 -34.609375 14.046875 -34.609375 L 62.296875 -34.609375 L 62.296875 -28.875 L 14.046875 -28.875 C 12.828125 -28.875 11.796875 -28.460938 10.953125 -27.640625 C 10.109375 -26.816406 9.6875 -25.773438 9.6875 -24.515625 L 9.6875 -20.171875 L 62.296875 -20.171875 L 62.296875 -14.4375 L 9.6875 -14.4375 L 9.6875 -10.078125 C 9.6875 -8.859375 10.109375 -7.828125 10.953125 -6.984375 C 11.796875 -6.148438 12.828125 -5.734375 14.046875 -5.734375 L 62.296875 -5.734375 L 62.296875 0 L 14.046875 0 C 12.097656 0 10.363281 -0.4375 8.84375 -1.3125 C 7.332031 -2.1875 6.140625 -3.378906 5.265625 -4.890625 C 4.390625 -6.410156 3.953125 -8.140625 3.953125 -10.078125 Z M 3.953125 -24.515625 "/></g></g></g><g fill="#ffffff" fill-opacity="1"><g transform="translate(447.768323, 416.303222)"><g><path d="M 32.234375 0 L 32.234375 -28.875 L 3.953125 -28.875 L 3.953125 -34.609375 L 66.25 -34.609375 L 66.25 -28.875 L 37.96875 -28.875 L 37.96875 0 Z M 32.234375 0 "/></g></g></g><g fill="#ffffff" fill-opacity="1"><g transform="translate(517.939447, 416.303222)"><g><path d="M 3.953125 0 L 3.953125 -34.609375 L 9.6875 -34.609375 L 9.6875 -6.625 L 56.5625 -34.609375 L 62.296875 -34.609375 L 62.296875 0 L 56.5625 0 L 56.5625 -27.875 L 9.6875 0 Z M 3.953125 0 "/></g></g></g><g fill="#ffffff" fill-opacity="1"><g transform="translate(584.157279, 416.303222)"><g><path d="M 3.953125 0 L 3.953125 -34.609375 L 9.6875 -34.609375 L 9.6875 -20.171875 L 56.5625 -20.171875 L 56.5625 -34.609375 L 62.296875 -34.609375 L 62.296875 0 L 56.5625 0 L 56.5625 -14.4375 L 9.6875 -14.4375 L 9.6875 0 Z M 3.953125 0 "/></g></g></g><g fill="#ffffff" fill-opacity="1"><g transform="translate(650.375111, 416.303222)"><g><path d="M 9.6875 0 L 3.953125 0 L 3.953125 -24.515625 C 3.953125 -26.460938 4.390625 -28.191406 5.265625 -29.703125 C 6.140625 -31.222656 7.332031 -32.421875 8.84375 -33.296875 C 10.363281 -34.171875 12.097656 -34.609375 14.046875 -34.609375 L 62.296875 -34.609375 L 62.296875 -28.875 L 14.046875 -28.875 C 12.828125 -28.875 11.796875 -28.460938 10.953125 -27.640625 C 10.109375 -26.816406 9.6875 -25.773438 9.6875 -24.515625 Z M 9.6875 0 "/></g></g></g><g fill="#ffffff" fill-opacity="1"><g transform="translate(716.592942, 416.303222)"><g/></g></g><g fill="#ffffff" fill-opacity="1"><g transform="translate(744.26607, 416.303222)"><g><path d="M 56.5625 -24.515625 C 56.5625 -25.773438 56.144531 -26.816406 55.3125 -27.640625 C 54.488281 -28.460938 53.453125 -28.875 52.203125 -28.875 L 14.046875 -28.875 C 12.828125 -28.875 11.796875 -28.460938 10.953125 -27.640625 C 10.109375 -26.816406 9.6875 -25.773438 9.6875 -24.515625 L 9.6875 -20.171875 L 56.5625 -20.171875 Z M 3.953125 0 L 3.953125 -24.515625 C 3.953125 -26.460938 4.390625 -28.191406 5.265625 -29.703125 C 6.140625 -31.222656 7.332031 -32.421875 8.84375 -33.296875 C 10.363281 -34.171875 12.097656 -34.609375 14.046875 -34.609375 L 52.203125 -34.609375 C 54.148438 -34.609375 55.878906 -34.171875 57.390625 -33.296875 C 58.910156 -32.421875 60.109375 -31.222656 60.984375 -29.703125 C 61.859375 -28.191406 62.296875 -26.460938 62.296875 -24.515625 L 62.296875 0 L 56.5625 0 L 56.5625 -14.4375 L 9.6875 -14.4375 L 9.6875 0 Z M 3.953125 0 "/></g></g></g><g fill="#ffffff" fill-opacity="1"><g transform="translate(810.483936, 416.303222)"><g><path d="M 9.6875 0 L 3.953125 0 L 3.953125 -24.515625 C 3.953125 -26.460938 4.390625 -28.191406 5.265625 -29.703125 C 6.140625 -31.222656 7.332031 -32.421875 8.84375 -33.296875 C 10.363281 -34.171875 12.097656 -34.609375 14.046875 -34.609375 L 62.296875 -34.609375 L 62.296875 -28.875 L 14.046875 -28.875 C 12.828125 -28.875 11.796875 -28.460938 10.953125 -27.640625 C 10.109375 -26.816406 9.6875 -25.773438 9.6875 -24.515625 Z M 9.6875 0 "/></g></g></g><g fill="#ffffff" fill-opacity="1"><g transform="translate(876.701801, 416.303222)"><g><path d="M 3.953125 -24.515625 C 3.953125 -26.460938 4.390625 -28.191406 5.265625 -29.703125 C 6.140625 -31.222656 7.332031 -32.421875 8.84375 -33.296875 C 10.363281 -34.171875 12.097656 -34.609375 14.046875 -34.609375 L 62.296875 -34.609375 L 62.296875 -28.875 L 14.046875 -28.875 C 12.828125 -28.875 11.796875 -28.460938 10.953125 -27.640625 C 10.109375 -26.816406 9.6875 -25.773438 9.6875 -24.515625 L 9.6875 -20.171875 L 62.296875 -20.171875 L 62.296875 -14.4375 L 9.6875 -14.4375 L 9.6875 -10.078125 C 9.6875 -8.859375 10.109375 -7.828125 10.953125 -6.984375 C 11.796875 -6.148438 12.828125 -5.734375 14.046875 -5.734375 L 62.296875 -5.734375 L 62.296875 0 L 14.046875 0 C 12.097656 0 10.363281 -0.4375 8.84375 -1.3125 C 7.332031 -2.1875 6.140625 -3.378906 5.265625 -4.890625 C 4.390625 -6.410156 3.953125 -8.140625 3.953125 -10.078125 Z M 3.953125 -24.515625 "/></g></g></g><g fill="#ffffff" fill-opacity="1"><g transform="translate(942.919667, 416.303222)"><g><path d="M 3.953125 0 L 3.953125 -34.609375 L 9.6875 -34.609375 L 9.6875 -20.171875 L 56.5625 -20.171875 L 56.5625 -34.609375 L 62.296875 -34.609375 L 62.296875 0 L 56.5625 0 L 56.5625 -14.4375 L 9.6875 -14.4375 L 9.6875 0 Z M 3.953125 0 "/></g></g></g><g fill="#ffffff" fill-opacity="1"><g transform="translate(1009.137533, 416.303222)"><g><path d="M 32.234375 0 L 32.234375 -28.875 L 3.953125 -28.875 L 3.953125 -34.609375 L 66.25 -34.609375 L 66.25 -28.875 L 37.96875 -28.875 L 37.96875 0 Z M 32.234375 0 "/></g></g></g><g fill="#ffffff" fill-opacity="1"><g transform="translate(1079.308623, 416.303222)"><g><path d="M 9.6875 -10.078125 C 9.6875 -8.859375 10.109375 -7.828125 10.953125 -6.984375 C 11.796875 -6.148438 12.828125 -5.734375 14.046875 -5.734375 L 62.296875 -5.734375 L 62.296875 0 L 14.046875 0 C 12.097656 0 10.363281 -0.4375 8.84375 -1.3125 C 7.332031 -2.1875 6.140625 -3.378906 5.265625 -4.890625 C 4.390625 -6.410156 3.953125 -8.140625 3.953125 -10.078125 L 3.953125 -24.515625 C 3.953125 -26.460938 4.390625 -28.191406 5.265625 -29.703125 C 6.140625 -31.222656 7.332031 -32.421875 8.84375 -33.296875 C 10.363281 -34.171875 12.097656 -34.609375 14.046875 -34.609375 L 62.296875 -34.609375 L 62.296875 -28.875 L 14.046875 -28.875 C 12.828125 -28.875 11.796875 -28.460938 10.953125 -27.640625 C 10.109375 -26.816406 9.6875 -25.773438 9.6875 -24.515625 Z M 9.6875 -10.078125 "/></g></g></g><g fill="#ffffff" fill-opacity="1"><g transform="translate(1145.526488, 416.303222)"><g><path d="M 32.234375 0 L 32.234375 -28.875 L 3.953125 -28.875 L 3.953125 -34.609375 L 66.25 -34.609375 L 66.25 -28.875 L 37.96875 -28.875 L 37.96875 0 Z M 32.234375 0 "/></g></g></g><g fill="#ffffff" fill-opacity="1"><g transform="translate(1215.697579, 416.303222)"><g><path d="M 3.953125 0 L 3.953125 -34.609375 L 52.203125 -34.609375 C 54.148438 -34.609375 55.878906 -34.171875 57.390625 -33.296875 C 58.910156 -32.421875 60.109375 -31.222656 60.984375 -29.703125 C 61.859375 -28.191406 62.296875 -26.460938 62.296875 -24.515625 C 62.296875 -21.554688 61.335938 -19.148438 59.421875 -17.296875 C 61.335938 -15.453125 62.296875 -13.046875 62.296875 -10.078125 C 62.296875 -8.140625 61.859375 -6.410156 60.984375 -4.890625 C 60.109375 -3.378906 58.910156 -2.1875 57.390625 -1.3125 C 55.878906 -0.4375 54.148438 0 52.203125 0 Z M 9.6875 -5.734375 L 52.203125 -5.734375 C 53.453125 -5.734375 54.488281 -6.148438 55.3125 -6.984375 C 56.144531 -7.828125 56.5625 -8.859375 56.5625 -10.078125 C 56.5625 -11.335938 56.144531 -12.378906 55.3125 -13.203125 C 54.488281 -14.023438 53.453125 -14.4375 52.203125 -14.4375 L 9.6875 -14.4375 Z M 9.6875 -20.171875 L 52.203125 -20.171875 C 53.453125 -20.171875 54.488281 -20.585938 55.3125 -21.421875 C 56.144531 -22.265625 56.5625 -23.296875 56.5625 -24.515625 C 56.5625 -25.773438 56.144531 -26.816406 55.3125 -27.640625 C 54.488281 -28.460938 53.453125 -28.875 52.203125 -28.875 L 9.6875 -28.875 Z M 9.6875 -20.171875 "/></g></g></g><g fill="#ffffff" fill-opacity="1"><g transform="translate(1281.915444, 416.303222)"><g><path d="M 52.203125 -34.609375 C 54.148438 -34.609375 55.878906 -34.171875 57.390625 -33.296875 C 58.910156 -32.421875 60.109375 -31.222656 60.984375 -29.703125 C 61.859375 -28.191406 62.296875 -26.460938 62.296875 -24.515625 L 62.296875 -10.078125 C 62.296875 -8.140625 61.859375 -6.410156 60.984375 -4.890625 C 60.109375 -3.378906 58.910156 -2.1875 57.390625 -1.3125 C 55.878906 -0.4375 54.148438 0 52.203125 0 L 14.046875 0 C 12.097656 0 10.363281 -0.4375 8.84375 -1.3125 C 7.332031 -2.1875 6.140625 -3.378906 5.265625 -4.890625 C 4.390625 -6.410156 3.953125 -8.140625 3.953125 -10.078125 L 3.953125 -24.515625 C 3.953125 -26.460938 4.390625 -28.191406 5.265625 -29.703125 C 6.140625 -31.222656 7.332031 -32.421875 8.84375 -33.296875 C 10.363281 -34.171875 12.097656 -34.609375 14.046875 -34.609375 Z M 9.6875 -10.078125 C 9.6875 -8.859375 10.109375 -7.828125 10.953125 -6.984375 C 11.796875 -6.148438 12.828125 -5.734375 14.046875 -5.734375 L 52.203125 -5.734375 C 53.453125 -5.734375 54.488281 -6.148438 55.3125 -6.984375 C 56.144531 -7.828125 56.5625 -8.859375 56.5625 -10.078125 L 56.5625 -24.515625 C 56.5625 -25.773438 56.144531 -26.816406 55.3125 -27.640625 C 54.488281 -28.460938 53.453125 -28.875 52.203125 -28.875 L 14.046875 -28.875 C 12.828125 -28.875 11.796875 -28.460938 10.953125 -27.640625 C 10.109375 -26.816406 9.6875 -25.773438 9.6875 -24.515625 Z M 9.6875 -10.078125 "/></g></g></g></svg>